<?xml version="1.0" standalone="no"?>
<!DOCTYPE svg PUBLIC "-//W3C//DTD SVG 20010904//EN"
 "http://www.w3.org/TR/2001/REC-SVG-20010904/DTD/svg10.dtd">
<svg version="1.0" xmlns="http://www.w3.org/2000/svg"
 width="700.000000pt" height="700.000000pt" viewBox="0 0 700.000000 700.000000"
 preserveAspectRatio="xMidYMid meet">
<metadata>
Created by potrace 1.14, written by Peter Selinger 2001-2017
</metadata>
<g transform="translate(0.000000,700.000000) scale(0.100000,-0.100000)"
fill="#000000" stroke="none">
<path d="M0 3500 l0 -3500 3500 0 3500 0 0 3500 0 3500 -3500 0 -3500 0 0
-3500z m4535 2257 c112 -32 222 -95 300 -171 59 -59 135 -165 135 -190 0 -3
-661 -6 -1470 -6 -808 0 -1470 3 -1470 6 0 4 14 32 32 63 64 113 211 233 340
276 127 44 126 44 1123 42 868 -2 955 -4 1010 -20z m490 -621 c33 -9 98 -36
145 -58 116 -56 239 -177 295 -291 21 -42 36 -79 34 -81 -2 -3 -39 4 -82 14
-243 58 -553 69 -1897 69 -1351 0 -1658 -11 -1894 -69 -44 -11 -82 -18 -84
-15 -3 3 8 33 24 67 95 201 294 343 529 378 27 4 685 7 1460 6 1321 -2 1414
-3 1470 -20z m5 -635 c327 -32 484 -90 607 -224 105 -116 137 -227 137 -472
-1 -199 -7 -254 -120 -1035 -119 -823 -140 -941 -196 -1099 -92 -264 -251
-381 -579 -428 -114 -16 -230 -18 -1379 -18 -1149 0 -1265 2 -1379 18 -362 52
-520 188 -610 527 -34 127 -66 320 -160 965 -118 818 -124 869 -125 1070 0
261 34 366 158 491 149 149 338 198 821 214 361 12 2686 4 2825 -9z"/>
<path d="M3440 4003 c-36 -15 -72 -48 -90 -83 -19 -38 -20 -61 -20 -556 l0
-516 -27 6 c-58 15 -200 18 -256 6 -170 -35 -325 -178 -377 -348 -27 -87 -27
-217 0 -304 79 -255 356 -410 615 -343 182 48 327 195 370 376 12 52 15 148
15 511 l0 448 59 -43 c137 -101 336 -173 457 -165 71 4 104 23 142 79 20 29
23 44 20 94 -6 104 -54 149 -177 166 -119 17 -275 107 -370 215 -78 88 -131
209 -131 296 0 50 -31 110 -72 139 -32 23 -125 36 -158 22z m-200 -1496 c106
-56 119 -193 27 -274 -115 -101 -288 -11 -275 142 10 125 136 191 248 132z"/>
</g>
</svg>
